<?xml version="1.0" encoding="utf-8"?>
<!-- Generator: Adobe Illustrator 18.0.0, SVG Export Plug-In . SVG Version: 6.00 Build 0)  -->
<!DOCTYPE svg PUBLIC "-//W3C//DTD SVG 1.1//EN" "http://www.w3.org/Graphics/SVG/1.1/DTD/svg11.dtd">
<svg version="1.1" id="Layer_1" xmlns="http://www.w3.org/2000/svg" xmlns:xlink="http://www.w3.org/1999/xlink" x="0px" y="0px"
	 viewBox="0 0 1280 800" enable-background="new 0 0 1280 800" xml:space="preserve">
<path d="M915.7,386.6l-246.9-13c-4.5,0-8.7,1.6-11.9,4.2c-1-8.6-3.2-15.9-7.6-23.9c-8.4-15.3-45.3-33.5-46.7-34.5
	c-1.8-1.3-4.2-0.9-5.5,0.9c-1.3,1.8-0.8,4.2,0.9,5.5c0.3,0.2,36.8,18.1,44.3,31.9c7.6,13.8,7.6,25.6,7.6,49.2v131.3h-74.3
	c-2.8-14-15.9-23.8-30.3-22.3c-0.8,0.1-1.6,0.2-2.3,0.3c-9.3-23.9-23.6-60.5-30.2-77.1l-3.9-9.8c-1.3-3.2-2.5-6.3-3.8-9.5
	c-0.2-0.5-0.6-1.2-0.6-1.5c0-0.3,0.1-0.3,0.3-0.6c1.3-1.7,1.6-3.7,0.7-6.2c-1.1-3.1-2.1-6.2-6.6-6c-2.6-7-5.4-13.7-8-20.6
	c7.2-0.9,14.3-2.4,20.8-4c1-0.2,2-0.4,2.9-0.7c1.3-0.4,2.5-1.7,3.6-2.7c1.2-1.2,3.1-3.2,2.2-5.2c-0.8-1.9-3.8-2.7-6.4-3.2
	c-7.3-1.3-16-0.5-24.1-0.8c-5.4-0.2-10.1-0.9-14.8-1.8c-4.7-0.9-9.2-1.9-14.4-2.2c-2.8-0.2-5,0.2-6.8,1.3c-1.8,1-3,2.5-3.9,4.4
	c-0.9,2.1-1.4,4.8-0.7,7c1.2,3.9,4.6,6.7,8.5,8.1c6.4,2.4,14.5,1.2,22.9,0.9c0.4,0.4,0.4,0.9,0.6,1.3c2.6,6.6,5.2,13.2,7.8,19.9
	c0.2,0.5,0.5,1.2,0.5,1.5c0,0.5,0,0.2-0.3,0.6c-1.2,1.5-1.9,3.3-1.2,5.8c0.6,2.2,1.2,4.3,2.9,5.6c0.7,0.5,1.5,0.9,2.5,1.2
	c1.8,4.5,3.6,9,5.4,13.4c-0.4,0.7-1,1.3-1.5,1.9c-8,9.3-16.1,18.5-24.2,27.6C458.1,453,438.8,446,417.8,446
	c-50.5,0-91.4,40.9-91.4,91.4c0,50.5,40.9,91.4,91.4,91.4c47.4,0,86.4-36.1,91-82.3c2,0.1,6.5,0.3,11.6,0.5
	c1.7,15.3,15.4,26.3,30.7,24.8c1-0.1,1.9-0.2,2.8-0.4c1.6,4.3,2.9,7.6,3.2,8.4h-3.7c-1.2,0-2.5-0.2-3.8,0c-1.4,0.2-2.2,1.2-2.7,2.2
	c-0.6,1.2-0.5,2.6-0.5,4.4c0,1.5-0.1,3.3,0.4,4.5c0.5,1.2,1.4,2,2.6,2.3c1.8,0.4,4.5,0.1,6.6,0.1h13.5c2.3,0,4.8,0.3,6.7-0.1
	c1.5-0.3,2.8-1.6,3.2-3.2c0.2-0.8,0.1-2,0.1-3.1c0-1.1,0.1-2.3,0-3.3c-0.1-2-1.6-3.7-3.3-3.9c-1.7-0.2-3.5,0-5.1,0h-5.1l-4.3-11.2
	c7.7-4.2,13.2-11.9,14.4-20.8h147.8c0.1,1.2,0.1,2.4,0.3,3.6c4.4,42.4,42.5,73.3,84.8,68.9c42.4-4.4,73.3-42.4,68.9-84.8
	c-4.4-42.4-42.5-73.3-84.8-68.9c-38,3.9-66.7,34.9-69.1,71.7h-2.9c2.2-42.6,37.4-76.5,80.5-76.5c44.5,0,80.6,36.1,80.6,80.6h32.4
	c10.3,0,18.7-8.2,18.7-18.4l1.3-119C934.4,394.8,926,386.6,915.7,386.6z M567.3,538.3l-11.9,0.3l6.6-9.1
	C564.4,531.8,566.3,534.8,567.3,538.3z M536,528.1c0.7,1.7,2,4.6,3,7l-6.1-3.9C533.8,530,534.9,529.1,536,528.1z M535,538.3
	c-1.7-0.1-3.6-0.2-5.7-0.3c0.3-0.9,0.6-1.8,1-2.6L535,538.3z M399.3,468.1c3.9,17.2,7.6,34.6,11.4,51.9c-1,0.3-1.9,0.9-2.9,1.3
	c-9.9-14.6-20.1-28.8-30-43.4C384.3,473.5,391.5,470.2,399.3,468.1z M401.1,545.5c-0.3,0.4-0.9,0.7-1.3,1
	c-13.9,9.8-28.2,19.6-42.2,29.4c-4.4-6.7-7.8-14.3-9.8-23.4c17.2-3.8,34.6-7.7,51.7-11.3C399.9,542.8,400.5,544.2,401.1,545.5z
	 M347.6,523.3c1.7-8.4,4.8-16.4,9.2-23.4c14.9,9.4,29.6,19,44.4,28.4c-0.7,1.3-1.3,2.8-1.7,4.3C382.2,529.5,364.9,526.3,347.6,523.3
	z M397,551.6c1.9-1.3,3.9-2.8,5.6-3.9c0.9,1.3,2.2,2.4,3.3,3.5c-9.6,14.9-19.1,29.8-28.7,44.7c-1.9-1.1-3.5-2.5-5.2-3.9
	c-4.9-4.1-9.3-8.7-13.1-14C371.6,569.2,384.3,560.4,397,551.6z M406.2,555.6c0.6-1,1.3-2.3,2-2.9c1,0.5,2.2,1,3.2,1.5
	c-3.1,17.6-6.3,35.1-9.4,52.7c-8.7-2-16.1-5.3-22.6-9.4C388.2,583.6,397.2,569.6,406.2,555.6z M413.9,555c0-0.1,0.1-0.2,0.2-0.2
	c1.4,0.2,2.8,0.3,4.4,0.2c3.7,17.6,7.7,35,11.4,52.5c-7.6,1.4-17.9,1.3-25.3-0.2C407.6,589.9,410.8,572.5,413.9,555z M431.5,467
	c0.4,0.1,0.7,0.1,1,0.2c0.9,0.2,1.9,0.4,2.8,0.6c0.2,0.1,0.4,0.1,0.5,0.1c1,0.2,2,0.5,2.9,0.8c0.2,0.1,0.3,0.1,0.5,0.1
	c0.8,0.3,1.6,0.6,2.4,0.8c0.3,0.1,0.7,0.2,1,0.4c0.4,0.1,0.8,0.3,1.2,0.5c3.7,1.5,7.1,3.2,10.4,5.1c-7.8,12.3-15.7,24.6-23.6,36.9
	c-1.8,2.8-3.3,5.7-5.7,7.9c-1.4-0.6-2.9-1.1-4.6-1.5c3.1-17.5,6.2-35,9.4-52.3C430.3,466.8,430.9,466.9,431.5,467z M476.3,496.4h0.2
	c4.6,6.6,8.2,14.1,10.5,23c-17.6,3.8-35.1,7.7-52.7,11.5c-0.5-1.4-1.1-2.8-1.9-3.9C446.9,516.8,461.6,506.6,476.3,496.4z
	 M439.1,504.3c5.8-9.1,11.7-18,17.4-27.2c1.4,0.8,2.7,1.8,4,2.7c-7.1,8.3-14.3,16.4-21.4,24.6C439,504.4,439.1,504.4,439.1,504.3z
	 M439.2,519C439.1,519.2,439.2,519.1,439.2,519c9.5-11,19-21.8,28.5-32.8c2.7,2.4,5,5.1,7.1,8.1C462.9,502.5,451.1,510.8,439.2,519z
	 M420.9,554.7c2-0.6,3.9-1.2,5.6-2.2c10.3,14.7,20.5,29.4,30.7,44.1c-7,4.7-15.1,8.4-24.8,10.4C428.5,589.6,424.8,572.1,420.9,554.7
	z M428.6,551.1c1-1.1,2.3-2.4,3.1-3.3c15.1,9.6,30.1,19.3,45.3,28.9c-1.1,1.9-2.5,3.6-3.8,5.2c-3.9,4.9-8.6,9.4-13.9,13.1
	C449.1,580.4,438.9,565.7,428.6,551.1z M433.1,545.6c0.5-0.9,0.9-2,1.3-2.9c2.9,0.3,6.5,0.1,9.6,0.4c1.8,0.2,3.7,0.7,5.5,1
	c12.6,2.2,25.6,4.6,38.3,6.9c-1.9,9.1-5.1,16.9-9.3,23.6C463.3,565,448.2,555.3,433.1,545.6z M464.7,544.3c7.8,0.2,16,0.8,23.9,1.2
	c-0.1,1.1-0.3,2-0.4,3C480.4,547.1,472.6,545.6,464.7,544.3z M436.5,533.1c16.9-3.8,34-7.4,50.9-11.2h0.2c0.8,4.3,1.5,8.8,1.5,13.9
	C471.6,534.9,454.1,534,436.5,533.1z M417.8,465.7c3.2,0,6.3,0.2,9.3,0.6c-3,17.6-6.3,34.9-9.3,52.5c-1.7-0.1-3.2,0.1-4.6,0.4
	c-3.8-17.2-7.5-34.5-11.3-51.7C407,466.3,412.3,465.7,417.8,465.7z M405.8,522.7c-1.1,1.1-2.3,2.1-3.2,3.4
	c-14.8-9.5-29.6-19-44.4-28.4c4.7-7,10.6-13.2,17.4-18.2C385.7,493.8,395.7,508.3,405.8,522.7z M347.1,549c-0.1-0.4-0.1-0.8-0.2-1.2
	c-0.1-0.8-0.2-1.5-0.3-2.3c0-0.4-0.1-0.7-0.1-1.1c-0.1-0.9-0.2-1.9-0.2-2.9c0-0.4,0-0.8,0-1.2c0-1-0.1-2-0.1-2.9c0-0.1,0-0.1,0-0.1
	c0-3.9,0.3-7.7,0.9-11.4c0,0,0,0,0,0c17.4,3,34.6,6.2,52,9.3c-0.1,1-0.1,2.5,0,3.6c-17.3,3.7-34.5,7.5-51.8,11.3
	C347.3,549.6,347.2,549.3,347.1,549z M520.9,537.5c-5-0.3-9.5-0.5-11.7-0.6c-0.1-25.9-11-49.2-28.4-65.7c7.5-8.5,14.9-17,22.3-25.6
	c9.2,22.8,20.4,51,29.8,74.8C526.9,524.2,522.6,530.3,520.9,537.5z M528.7,547.3c5.7,0.2,11.1,0.4,14,0.5l-7.8,10.7
	C531.7,555.6,529.5,551.7,528.7,547.3z M550.2,563.6c-4.1,0.4-8-0.4-11.4-2.2l7.4-10.2c1.1,3,2.9,7.6,4.7,12.3
	C550.7,563.5,550.5,563.6,550.2,563.6z M550.9,536.5c-0.9-2.4-2.6-6.8-4.8-12.4c0,0,0.1,0,0.1,0c4.3-0.4,8.4,0.5,11.9,2.5
	L550.9,536.5z M558.6,560.7l-3.7-9.7l8.6,5.5C562.2,558.1,560.5,559.5,558.6,560.7z M566.1,552.3l-7.4-4.7h9
	C567.4,549.3,566.8,550.8,566.1,552.3z M825.1,599.9l-16.9-43.1c1.1-0.6,2.1-1.3,3-2.1l31.6,33.7
	C837.7,593.2,831.7,597.1,825.1,599.9z M844.4,586.8L812.8,553c0.9-1,1.6-2.2,2.2-3.5l42.5,18.2
	C854.3,574.8,849.9,581.3,844.4,586.8z M858.3,565.6l-42.6-18.2c0.3-1.2,0.5-2.4,0.5-3.6l46.3,0.4
	C862.4,551.6,860.9,558.9,858.3,565.6z M862.2,536.9c0.2,1.7,0.3,3.3,0.3,4.9l-46.3-0.4c-0.1-1.2-0.4-2.4-0.9-3.5l42.7-17.7
	C860.1,525.5,861.5,531.1,862.2,536.9z M857.1,518.2l-42.7,17.7c-0.5-0.9-1.1-1.8-1.8-2.6l33.2-32.2
	C850.4,506.1,854.3,511.8,857.1,518.2z M844.1,499.5l-33.2,32.2c-0.9-0.7-1.8-1.4-2.8-1.9l18.4-42.4
	C833.1,490.4,839,494.5,844.1,499.5z M802.5,481.8c7.7,0.2,15.1,1.8,21.9,4.7l-18.4,42.4c-1.1-0.4-2.3-0.7-3.5-0.8L802.5,481.8z
	 M802.5,558.5c1.3-0.1,2.5-0.4,3.6-0.8l16.9,43c-4.9,1.9-10.2,3.2-15.7,3.8c-1.6,0.2-3.2,0.2-4.8,0.3L802.5,558.5z M744.4,567.5
	l42.7-17.8c0.6,1.2,1.2,2.3,2,3.2l-33.2,32.2C751.1,580,747.2,574.1,744.4,567.5z M757.5,586.8l33.2-32.2c1,0.9,2.1,1.7,3.3,2.3
	l-18.4,42.4C768.8,596.2,762.7,592,757.5,586.8z M800.3,604.8c-7.9-0.1-15.6-1.7-22.6-4.6l18.4-42.5c1.4,0.5,2.8,0.7,4.2,0.8V604.8z
	 M794.6,482.1c1.9-0.2,3.8-0.3,5.7-0.3l0,46.2c-0.3,0-0.6,0-0.9,0.1c-0.8,0.1-1.5,0.2-2.2,0.4l-16.9-43.1
	C784.8,483.8,789.6,482.6,794.6,482.1z M778.1,486.2l16.9,43c-1,0.4-2,1-3,1.7l-31.6-33.8C765.6,492.5,771.6,488.8,778.1,486.2z
	 M758.7,498.6l31.6,33.7c-1,0.9-1.8,2-2.5,3.2l-42.6-18.2C748.5,510.3,753.1,503.9,758.7,498.6z M744.3,519.4l42.5,18.2
	c-0.1,0.2-0.2,0.4-0.2,0.7h-46.9C740.2,531.6,741.8,525.2,744.3,519.4z M786.3,547.6l-42.7,17.8c-1.9-4.9-3.2-10.2-3.8-15.7
	c-0.1-0.7-0.1-1.4-0.2-2H786.3z"/>
</svg>
